<svg xmlns="http://www.w3.org/2000/svg" width="19" height="19" viewBox="0 0 19 19"><defs><style>.a{fill:#393939;}</style></defs><path class="a" d="M2.783,19h6.2V12.246H6.754V10.02H8.98V7.236a2.786,2.786,0,0,1,2.783-2.783h2.783V6.68H12.32a1.114,1.114,0,0,0-1.113,1.113V10.02h3.239l-.371,2.227H11.207V19h5.01A2.786,2.786,0,0,0,19,16.217V2.783A2.786,2.786,0,0,0,16.217,0H2.783A2.786,2.786,0,0,0,0,2.783V16.217A2.786,2.786,0,0,0,2.783,19ZM1.113,2.783a1.672,1.672,0,0,1,1.67-1.67H16.217a1.672,1.672,0,0,1,1.67,1.67V16.217a1.672,1.672,0,0,1-1.67,1.67h-3.9V13.359h2.7l.742-4.453H12.32V7.793h3.34V3.34h-3.9a3.9,3.9,0,0,0-3.9,3.9v1.67H5.641v4.453H7.867v4.527H2.783a1.672,1.672,0,0,1-1.67-1.67Zm0,0"/></svg>