<svg xmlns="http://www.w3.org/2000/svg" width="19" height="19" viewBox="0 0 19 19"><defs><style>.a{fill:#393939;}</style></defs><path class="a" d="M13.063,0H5.938A5.938,5.938,0,0,0,0,5.938v7.125A5.938,5.938,0,0,0,5.938,19h7.125A5.938,5.938,0,0,0,19,13.063V5.938A5.938,5.938,0,0,0,13.063,0Zm4.156,13.063a4.161,4.161,0,0,1-4.156,4.156H5.938a4.161,4.161,0,0,1-4.156-4.156V5.938A4.161,4.161,0,0,1,5.938,1.781h7.125a4.161,4.161,0,0,1,4.156,4.156Z"/><g transform="translate(4.75 4.75)"><path class="a" d="M132.75,128a4.75,4.75,0,1,0,4.75,4.75A4.75,4.75,0,0,0,132.75,128Zm0,7.719a2.969,2.969,0,1,1,2.969-2.969A2.973,2.973,0,0,1,132.75,135.719Z" transform="translate(-128 -128)"/></g><g transform="translate(13.973 3.761)"><circle class="a" cx="0.633" cy="0.633" r="0.633"/></g></svg>